<?xml version="1.0" encoding="UTF-8" standalone="no"?>
<!DOCTYPE svg PUBLIC "-//W3C//DTD SVG 1.1//EN" "http://www.w3.org/Graphics/SVG/1.1/DTD/svg11.dtd">
<!--suppress XmlHighlighting, XmlHighlighting -->
<svg width="100%" height="100%" viewBox="0 0 1024 1024" version="1.1" xmlns="http://www.w3.org/2000/svg"
     xml:space="preserve"
     style="fill-rule:evenodd;clip-rule:evenodd;stroke-linecap:round;stroke-linejoin:round;stroke-miterlimit:1.5;">
    <g transform="matrix(1,0,0,1,76.0531,-5.43236)">
        <rect x="97.782" y="35.31" width="714.355" height="965.602" style="fill:white;stroke:black;stroke-width:26.56px;"/>
    </g>
    <g transform="matrix(2.12825,0,0,1.37069,-483.528,-368.396)">
        <rect x="315.077" y="300.138" width="323.225" height="157.538" style="fill:rgb(77,77,77);"/>
    </g>
    <g transform="matrix(1,0,0,1,98.1371,-298.78)">
        <path d="M301.113,404.142C565.941,404.142 564.583,404.142 564.583,404.142" style="fill:none;stroke:rgb(233,233,233);stroke-width:60.04px;"/>
    </g>
    <g transform="matrix(0.499894,0,0,0.499894,314.607,-38.2681)">
        <path d="M301.113,404.142C565.941,404.142 564.583,404.142 564.583,404.142" style="fill:none;stroke:rgb(233,233,233);stroke-width:53.12px;"/>
    </g>
    <g transform="matrix(0.499894,0,0,0.499894,314.635,5.19076)">
        <path d="M301.113,404.142C565.941,404.142 564.583,404.142 564.583,404.142" style="fill:none;stroke:rgb(233,233,233);stroke-width:53.12px;"/>
    </g>
    <g>
        <g transform="matrix(0.499894,0,0,0.499894,60.6725,85.3181)">
            <path d="M301.113,404.142C565.941,404.142 564.583,404.142 564.583,404.142" style="fill:none;stroke:black;stroke-width:28.82px;"/>
        </g>
        <g transform="matrix(2.40505,0,0,0.499894,-517.752,112.261)">
            <path d="M301.113,404.142C565.941,404.142 564.583,404.142 564.583,404.142" style="fill:none;stroke:black;stroke-width:3.21px;"/>
        </g>
        <g transform="matrix(2.40505,0,0,0.499894,-517.752,135.077)">
            <path d="M301.113,404.142C565.941,404.142 564.583,404.142 564.583,404.142" style="fill:none;stroke:black;stroke-width:3.21px;"/>
        </g>
        <g transform="matrix(2.40505,0,0,0.499894,-517.752,155.595)">
            <path d="M301.113,404.142C565.941,404.142 564.583,404.142 564.583,404.142" style="fill:none;stroke:black;stroke-width:3.21px;"/>
        </g>
        <g transform="matrix(0.499894,0,0,0.499894,60.6725,203.526)">
            <path d="M301.113,404.142C565.941,404.142 564.583,404.142 564.583,404.142" style="fill:none;stroke:black;stroke-width:28.82px;"/>
        </g>
        <g>
            <g transform="matrix(0.451954,0,0,0.499894,84.4857,238.826)">
                <path d="M301.113,404.142C565.941,404.142 564.583,404.142 564.583,404.142" style="fill:none;stroke:black;stroke-width:11.69px;"/>
            </g>
            <g transform="matrix(0.451954,0,0,0.499894,84.4747,263.865)">
                <path d="M301.113,404.142C565.941,404.142 564.583,404.142 564.583,404.142" style="fill:none;stroke:black;stroke-width:11.69px;"/>
            </g>
            <g transform="matrix(0.451954,0,0,0.499894,84.4736,287.073)">
                <path d="M301.113,404.142C565.941,404.142 564.583,404.142 564.583,404.142" style="fill:none;stroke:black;stroke-width:11.69px;"/>
            </g>
            <g transform="matrix(0.00105892,0,0,0.499894,206.34,238.823)">
                <path d="M301.113,404.142C565.941,404.142 564.583,404.142 564.583,404.142" style="fill:none;stroke:black;stroke-width:15.76px;"/>
            </g>
            <g transform="matrix(0.00105892,0,0,0.499894,206.34,263.862)">
                <path d="M301.113,404.142C565.941,404.142 564.583,404.142 564.583,404.142" style="fill:none;stroke:black;stroke-width:15.76px;"/>
            </g>
            <g transform="matrix(0.00105892,0,0,0.499894,206.34,287.07)">
                <path d="M301.113,404.142C565.941,404.142 564.583,404.142 564.583,404.142" style="fill:none;stroke:black;stroke-width:15.76px;"/>
            </g>
        </g>
        <g transform="matrix(1,0,0,1,-0.18228,72.1827)">
            <g transform="matrix(0.451954,0,0,0.499894,84.4857,238.826)">
                <path d="M301.113,404.142C565.941,404.142 564.583,404.142 564.583,404.142" style="fill:none;stroke:black;stroke-width:11.69px;"/>
            </g>
            <g transform="matrix(0.451954,0,0,0.499894,84.4747,263.865)">
                <path d="M301.113,404.142C565.941,404.142 564.583,404.142 564.583,404.142" style="fill:none;stroke:black;stroke-width:11.69px;"/>
            </g>
            <g transform="matrix(0.451954,0,0,0.499894,84.4736,287.073)">
                <path d="M301.113,404.142C565.941,404.142 564.583,404.142 564.583,404.142" style="fill:none;stroke:black;stroke-width:11.69px;"/>
            </g>
            <g transform="matrix(0.00105892,0,0,0.499894,206.34,238.823)">
                <path d="M301.113,404.142C565.941,404.142 564.583,404.142 564.583,404.142" style="fill:none;stroke:black;stroke-width:15.76px;"/>
            </g>
            <g transform="matrix(0.00105892,0,0,0.499894,206.34,263.862)">
                <path d="M301.113,404.142C565.941,404.142 564.583,404.142 564.583,404.142" style="fill:none;stroke:black;stroke-width:15.76px;"/>
            </g>
            <g transform="matrix(0.00105892,0,0,0.499894,206.34,287.07)">
                <path d="M301.113,404.142C565.941,404.142 564.583,404.142 564.583,404.142" style="fill:none;stroke:black;stroke-width:15.76px;"/>
            </g>
        </g>
    </g>
    <g transform="matrix(1,0,0,1,0.801816,321.506)">
        <g transform="matrix(0.499894,0,0,0.499894,60.6725,85.3181)">
            <path d="M301.113,404.142C565.941,404.142 564.583,404.142 564.583,404.142" style="fill:none;stroke:black;stroke-width:28.82px;"/>
        </g>
        <g transform="matrix(2.40505,0,0,0.499894,-517.752,112.261)">
            <path d="M301.113,404.142C565.941,404.142 564.583,404.142 564.583,404.142" style="fill:none;stroke:black;stroke-width:3.21px;"/>
        </g>
        <g transform="matrix(2.40505,0,0,0.499894,-517.752,135.077)">
            <path d="M301.113,404.142C565.941,404.142 564.583,404.142 564.583,404.142" style="fill:none;stroke:black;stroke-width:3.21px;"/>
        </g>
        <g transform="matrix(2.40505,0,0,0.499894,-517.752,155.595)">
            <path d="M301.113,404.142C565.941,404.142 564.583,404.142 564.583,404.142" style="fill:none;stroke:black;stroke-width:3.21px;"/>
        </g>
        <g transform="matrix(0.499894,0,0,0.499894,60.6725,203.526)">
            <path d="M301.113,404.142C565.941,404.142 564.583,404.142 564.583,404.142" style="fill:none;stroke:black;stroke-width:28.82px;"/>
        </g>
        <g>
            <g transform="matrix(0.451954,0,0,0.499894,84.4857,238.826)">
                <path d="M301.113,404.142C565.941,404.142 564.583,404.142 564.583,404.142" style="fill:none;stroke:black;stroke-width:11.69px;"/>
            </g>
            <g transform="matrix(0.451954,0,0,0.499894,84.4747,263.865)">
                <path d="M301.113,404.142C565.941,404.142 564.583,404.142 564.583,404.142" style="fill:none;stroke:black;stroke-width:11.69px;"/>
            </g>
            <g transform="matrix(0.451954,0,0,0.499894,84.4736,287.073)">
                <path d="M301.113,404.142C565.941,404.142 564.583,404.142 564.583,404.142" style="fill:none;stroke:black;stroke-width:11.69px;"/>
            </g>
            <g transform="matrix(0.00105892,0,0,0.499894,206.34,238.823)">
                <path d="M301.113,404.142C565.941,404.142 564.583,404.142 564.583,404.142" style="fill:none;stroke:black;stroke-width:15.76px;"/>
            </g>
            <g transform="matrix(0.00105892,0,0,0.499894,206.34,263.862)">
                <path d="M301.113,404.142C565.941,404.142 564.583,404.142 564.583,404.142" style="fill:none;stroke:black;stroke-width:15.76px;"/>
            </g>
            <g transform="matrix(0.00105892,0,0,0.499894,206.34,287.07)">
                <path d="M301.113,404.142C565.941,404.142 564.583,404.142 564.583,404.142" style="fill:none;stroke:black;stroke-width:15.76px;"/>
            </g>
        </g>
        <g transform="matrix(1,0,0,1,-0.18228,72.1827)">
            <g transform="matrix(0.451954,0,0,0.499894,84.4857,238.826)">
                <path d="M301.113,404.142C565.941,404.142 564.583,404.142 564.583,404.142" style="fill:none;stroke:black;stroke-width:11.69px;"/>
            </g>
            <g transform="matrix(0.451954,0,0,0.499894,84.4747,263.865)">
                <path d="M301.113,404.142C565.941,404.142 564.583,404.142 564.583,404.142" style="fill:none;stroke:black;stroke-width:11.69px;"/>
            </g>
            <g transform="matrix(0.451954,0,0,0.499894,84.4736,287.073)">
                <path d="M301.113,404.142C565.941,404.142 564.583,404.142 564.583,404.142" style="fill:none;stroke:black;stroke-width:11.69px;"/>
            </g>
            <g transform="matrix(0.00105892,0,0,0.499894,206.34,238.823)">
                <path d="M301.113,404.142C565.941,404.142 564.583,404.142 564.583,404.142" style="fill:none;stroke:black;stroke-width:15.76px;"/>
            </g>
            <g transform="matrix(0.00105892,0,0,0.499894,206.34,263.862)">
                <path d="M301.113,404.142C565.941,404.142 564.583,404.142 564.583,404.142" style="fill:none;stroke:black;stroke-width:15.76px;"/>
            </g>
            <g transform="matrix(0.00105892,0,0,0.499894,206.34,287.07)">
                <path d="M301.113,404.142C565.941,404.142 564.583,404.142 564.583,404.142" style="fill:none;stroke:black;stroke-width:15.76px;"/>
            </g>
        </g>
    </g>
</svg>
