<?xml version="1.0" encoding="UTF-8" standalone="no"?>
<!DOCTYPE svg PUBLIC "-//W3C//DTD SVG 1.1//EN" "http://www.w3.org/Graphics/SVG/1.1/DTD/svg11.dtd">
<svg width="100%" height="100%" viewBox="0 0 1000 1000" version="1.1" xmlns="http://www.w3.org/2000/svg" xmlns:xlink="http://www.w3.org/1999/xlink" xml:space="preserve" xmlns:serif="http://www.serif.com/" style="fill-rule:evenodd;clip-rule:evenodd;stroke-linejoin:round;stroke-miterlimit:2;">
    <g transform="matrix(1.10042,0,0,1.05924,-286.85,-56.5601)">
        <path d="M-68.869,939.694L1054.08,-184.897L1280.42,-61.322L112.997,1137.27L-68.869,939.694Z" style="fill:rgb(115,115,115);"/>
    </g>
    <g transform="matrix(0.708897,-0.705312,0.705312,0.708897,907.273,-344.36)">
        <path d="M-1328.75,107.09L-1238.88,107.09L-1238.88,123.09L-1315.95,123.09L-1315.95,171.356L-1251.55,171.356L-1251.55,186.29L-1315.95,186.29L-1315.95,253.223L-1328.75,253.223L-1328.75,107.09Z" style="fill-rule:nonzero;"/>
        <path d="M-1199.82,166.556L-1199.82,225.756L-1190.62,236.956L-1155.55,236.956L-1146.88,225.756L-1146.88,166.556L-1155.42,154.823L-1190.62,154.823L-1199.82,166.556ZM-1210.62,157.756L-1197.55,140.956C-1196.48,139.712 -1195.06,139.09 -1193.28,139.09L-1152.62,139.09C-1150.75,139.09 -1149.15,139.978 -1147.82,141.756L-1135.82,158.556C-1134.57,160.067 -1133.95,161.756 -1133.95,163.623L-1133.95,228.956C-1133.95,230.734 -1134.62,232.601 -1135.95,234.556L-1148.48,250.29C-1149.37,251.534 -1150.62,252.156 -1152.22,252.156L-1193.28,252.156C-1194.88,252.156 -1196.31,251.534 -1197.55,250.29L-1210.88,234.823C-1212.13,233.49 -1212.75,231.534 -1212.75,228.956L-1212.75,163.09C-1212.75,161.667 -1212.04,159.89 -1210.62,157.756Z" style="fill-rule:nonzero;"/>
        <path d="M-1072.75,182.823L-1072.75,252.956L-1085.42,252.956L-1085.42,163.89C-1085.42,161.934 -1086.13,159.978 -1087.55,158.023C-1089.15,156.423 -1090.75,155.623 -1092.35,155.623L-1096.22,155.623L-1096.22,139.356L-1085.68,139.356C-1083.46,139.356 -1080.75,141.09 -1077.55,144.556C-1074.35,148.023 -1072.75,151.712 -1072.75,155.623L-1072.75,160.69L-1057.82,142.023C-1056.31,140.245 -1054.79,139.356 -1053.28,139.356L-1037.55,139.356C-1035.59,139.356 -1034.08,140.156 -1033.02,141.756L-1019.42,158.023C-1018.08,159.623 -1017.42,161.578 -1017.42,163.89L-1017.42,171.89L-1030.35,171.89L-1030.35,167.09L-1040.08,155.623L-1050.48,155.623L-1072.75,182.823Z" style="fill-rule:nonzero;"/>
        <path d="M-937.416,196.423L-901.549,242.023L-910.883,253.223L-949.149,204.156L-966.349,204.156L-966.349,253.223L-979.683,253.223L-979.683,90.556L-966.349,90.556L-966.349,188.156L-948.883,188.156L-909.949,139.356L-900.883,150.556L-937.416,196.423Z" style="fill-rule:nonzero;"/>
        <path d="M-694.483,166.823L-694.483,253.223L-707.683,253.223L-707.683,166.823L-716.349,155.623L-724.216,155.623L-733.683,167.09L-733.683,253.223L-746.616,253.223L-746.616,139.623L-733.549,139.623L-733.549,144.156L-731.549,141.756C-730.216,140.156 -728.749,139.356 -727.149,139.356L-713.683,139.356C-711.816,139.356 -710.216,140.156 -708.883,141.756L-701.149,152.156L-692.883,142.023C-691.549,140.423 -690.038,139.623 -688.349,139.623L-674.483,139.623C-672.794,139.623 -671.283,140.423 -669.949,142.023L-657.283,157.756C-655.949,159.356 -655.283,161.223 -655.283,163.356L-655.283,253.223L-668.349,253.223L-668.349,166.556L-677.149,155.623L-685.549,155.623L-694.483,166.823Z" style="fill-rule:nonzero;"/>
        <path d="M-617.416,204.69L-617.416,225.756L-608.216,237.756L-551.283,237.756L-551.283,252.69L-610.749,252.69C-612.616,252.69 -614.038,251.978 -615.016,250.556L-628.483,234.556C-629.549,233.312 -630.083,231.445 -630.083,228.956L-630.083,164.423C-630.083,163.001 -629.372,161.223 -627.949,159.09L-614.883,142.29C-613.194,140.334 -611.594,139.356 -610.083,139.356L-571.016,139.356C-569.238,139.356 -567.683,140.334 -566.349,142.29L-553.683,158.823C-552.438,160.245 -551.816,162.023 -551.816,164.156L-551.816,204.69L-617.416,204.69ZM-617.149,188.156L-564.216,188.156L-564.216,167.356L-573.549,155.623L-607.683,155.623L-617.149,167.623L-617.149,188.156Z" style="fill-rule:nonzero;"/>
        <path d="M-474.749,236.956L-461.416,236.956L-461.416,253.223L-474.749,253.223L-474.749,236.956ZM-474.749,90.556L-461.683,90.556L-461.683,204.69L-474.749,204.69L-474.749,90.556Z" style="fill-rule:nonzero;"/>
    </g>
</svg>
